<svg xmlns="http://www.w3.org/2000/svg" xmlns:xlink="http://www.w3.org/1999/xlink" width="24" height="24" viewBox="0 0 24 24"><defs><clipPath id="a"><rect width="24" height="24" transform="translate(94 663)" fill="#1b3703" stroke="#707070" stroke-width="1"/></clipPath></defs><g transform="translate(-94 -663)" clip-path="url(#a)"><g transform="translate(94 663)"><path d="M18.142,18.536H14.058q.256-1.473.4-2.812l.438.027a.4.4,0,0,0,.025-.8l-.383-.024a28.253,28.253,0,0,0,.116-3.377H15a.4.4,0,0,0,0-.8h-.382a14.988,14.988,0,0,0-.372-2.5l.452-.181a.4.4,0,0,0-.3-.743l-.374.15c-.072-.223-.15-.438-.235-.644a.4.4,0,1,0-.74.3c1.315,3.2.793,8,.193,11.4H7.164c-.675-10.523-.429-6.709-.487-7.586a5.338,5.338,0,0,1,4.359-5.614A7.514,7.514,0,0,0,9.973,7.478L9.6,7.329a.4.4,0,0,0-.3.743l.453.181a14.934,14.934,0,0,0-.37,2.5H9a.4.4,0,1,0,0,.8h.344a28.425,28.425,0,0,0,.115,3.377l-.384.024a.4.4,0,0,0,.025.8c.022,0,.014,0,.439-.027q.066.6.153,1.219a.4.4,0,1,0,.792-.111c-.492-3.506-.834-9.083,1.675-11.579a5.331,5.331,0,0,1,5.164,5.7c-.014.2.074-1.159-.371,5.774a.4.4,0,1,0,.8.051l.029-.455.521.028a.4.4,0,0,0,.022-.8l-.491-.027.206-3.2.564.031a.4.4,0,0,0,.022-.8l-.534-.03A6.7,6.7,0,0,0,17.811,8.6l.559-.323a.4.4,0,1,0-.4-.693l-.47.272a6.233,6.233,0,0,0-1.628-2.033l.34-.425a.4.4,0,1,0-.625-.5l-.367.459a6.02,6.02,0,0,0-.965-.485A3.519,3.519,0,0,0,15.5,2.2a.4.4,0,0,0-.4-.4H13.526a.4.4,0,0,0,0,.8H14.67a2.718,2.718,0,0,1-1.4,1.981,6.276,6.276,0,0,0-2.547,0A2.718,2.718,0,0,1,9.33,2.6h1.144a1.888,1.888,0,0,1,1.628.919.4.4,0,1,0,.685-.414A2.683,2.683,0,0,0,11.26,1.915,1.31,1.31,0,0,1,12,.833a1.314,1.314,0,0,1,.36.252.4.4,0,0,0,.563-.568,2.142,2.142,0,0,0-.788-.493.4.4,0,0,0-.272,0,2.1,2.1,0,0,0-1.4,1.776H8.9a.4.4,0,0,0-.4.4A3.519,3.519,0,0,0,9.744,4.874a6.022,6.022,0,0,0-.965.485L8.412,4.9a.4.4,0,1,0-.625.5l.34.425A6.235,6.235,0,0,0,6.5,7.857l-.47-.271a.4.4,0,1,0-.4.693l.559.323a6.73,6.73,0,0,0-.277,2.919l-.535.03a.4.4,0,0,0,.044.8l.541-.03.206,3.2-.491.027a.4.4,0,0,0,.044.8l.5-.028.142,2.214h-.5A1.146,1.146,0,0,0,4.714,19.68v.931a1.146,1.146,0,0,0,1.144,1.144H17.369v.728a.717.717,0,0,1-.717.717H7.347a.712.712,0,0,1-.279-.056.4.4,0,0,0-.312.737A1.509,1.509,0,0,0,7.347,24h9.305a1.518,1.518,0,0,0,1.517-1.517V21.355a.4.4,0,0,0-.4-.4H5.859a.345.345,0,0,1-.344-.344V19.68a.345.345,0,0,1,.344-.344H18.142a.345.345,0,0,1,.344.344v.164a.4.4,0,0,0,.8,0V19.68a1.146,1.146,0,0,0-1.144-1.144Z" fill="#1b3703"/></g></g></svg>