<svg xmlns="http://www.w3.org/2000/svg" xmlns:xlink="http://www.w3.org/1999/xlink" width="30" height="30" viewBox="0 0 30 30"><defs><clipPath id="a"><rect width="30" height="30" transform="translate(324.995 38.995)" fill="#1b3703" stroke="#707070" stroke-width="1"/></clipPath></defs><g transform="translate(-324.995 -38.995)" clip-path="url(#a)"><path d="M24.779,1.125a3.855,3.855,0,0,0-5.447,0L17.968,2.5,3.454,17l-.031.031c-.007.007-.007.015-.015.015-.015.023-.039.046-.054.069,0,.008-.008.008-.008.015-.015.023-.023.039-.039.062-.007.008-.007.015-.015.023-.008.023-.015.039-.023.062,0,.007-.007.007-.007.015L.041,26.98a.758.758,0,0,0,.185.786.775.775,0,0,0,.547.224.909.909,0,0,0,.247-.039L10.7,24.723c.007,0,.007,0,.015-.007a.279.279,0,0,0,.069-.031.027.027,0,0,0,.016-.007c.023-.015.054-.031.077-.047s.046-.038.069-.054c.008-.008.015-.008.015-.015s.023-.015.031-.031L26.867,8.652a3.855,3.855,0,0,0,0-5.447ZM10.449,22.912,5.087,17.55,18.508,4.13,23.87,9.492ZM4.332,18.975,9.016,23.66,1.982,26Zm21.449-11.4-.817.824L19.6,3.035l.825-.824a2.311,2.311,0,0,1,3.266,0l2.1,2.1a2.318,2.318,0,0,1-.007,3.267Zm0,0" transform="translate(326.002 40.005)" fill="#1b3703" stroke="#1b3703" stroke-width="0.3"/></g></svg>