<svg xmlns="http://www.w3.org/2000/svg" xmlns:xlink="http://www.w3.org/1999/xlink" width="24" height="24" viewBox="0 0 24 24"><defs><clipPath id="a"><path d="M0,0H24V24H0Z" transform="translate(257.5 608.5)" fill="#1b3703" stroke="#707070" stroke-width="1"/></clipPath></defs><g transform="translate(-257.5 -608.5)" clip-path="url(#a)"><g transform="translate(263.479 607.598)"><path d="M17.571,11.513a.334.334,0,0,0-.254-.1,4.675,4.675,0,0,0-4.341,4.22l-.27.27a4.671,4.671,0,0,0-.691.88v-4.7h.066a1.761,1.761,0,0,0,1.727-2.106l-.077-.386.3.26a1.761,1.761,0,0,0,2.687-.442l.4-.692a1.761,1.761,0,0,0-.961-2.548l-.373-.126.373-.126a1.761,1.761,0,0,0,.961-2.548l-.4-.693a1.761,1.761,0,0,0-2.687-.442l-.3.26.077-.386A1.761,1.761,0,0,0,12.08,0h-.8A1.761,1.761,0,0,0,9.554,2.106l.077.386-.3-.26a1.761,1.761,0,0,0-2.687.442l-.4.693A1.769,1.769,0,0,0,6.51,5.475a.334.334,0,0,0,.479-.465A1.1,1.1,0,0,1,6.827,3.7l.4-.693a1.093,1.093,0,0,1,1.668-.275l.952.837.316,1.579-.013.023-2.941.995a1.761,1.761,0,0,0-.961,2.548l.4.692a1.754,1.754,0,0,0,1.239.857,1.774,1.774,0,0,0,.288.024,1.754,1.754,0,0,0,1.16-.438l.3-.26-.077.386a1.761,1.761,0,0,0,1.727,2.106h.066V18.57a4.673,4.673,0,0,0-.691-.88l-.27-.27A4.675,4.675,0,0,0,6.045,13.2a.334.334,0,0,0-.351.351,4.675,4.675,0,0,0,4.22,4.341l.27.27a3.947,3.947,0,0,1,1.164,2.809v1.481a.334.334,0,1,0,.668,0V19.187a3.946,3.946,0,0,1,1.164-2.809l.27-.27a4.675,4.675,0,0,0,4.22-4.341.334.334,0,0,0-.1-.254Zm-3.1-8.78a1.093,1.093,0,0,1,1.668.275l.4.693a1.093,1.093,0,0,1-.6,1.582l-1.2.406-.131-.044a.334.334,0,1,0-.214.632l1.545.523a1.093,1.093,0,0,1,.6,1.582l-.4.693a1.093,1.093,0,0,1-1.668.275L12.484,7.607A1.758,1.758,0,0,0,13.2,5.15l.316-1.58ZM11.681,4.948a1.093,1.093,0,1,1-1.093,1.093A1.094,1.094,0,0,1,11.681,4.948ZM10.435,1.068a1.089,1.089,0,0,1,.845-.4h.8a1.093,1.093,0,0,1,1.072,1.308l-.518,2.588a1.754,1.754,0,0,0-1.908,0l-.518-2.588a1.089,1.089,0,0,1,.227-.907ZM8.895,9.349a1.093,1.093,0,0,1-1.668-.275l-.4-.692a1.093,1.093,0,0,1,.6-1.582l2.5-.845c0,.029,0,.058,0,.087a1.762,1.762,0,0,0,.957,1.566Zm1.541,1.666a1.089,1.089,0,0,1-.227-.907l.249-1.243L11.667,7.8h.028L12.9,8.865l.249,1.243a1.093,1.093,0,0,1-1.072,1.308h-.8a1.089,1.089,0,0,1-.845-.4ZM7.524,16.072A3.955,3.955,0,0,1,6.4,13.908a4.032,4.032,0,0,1,3.285,3.285A3.955,3.955,0,0,1,7.524,16.072Zm8.313-1.784a3.955,3.955,0,0,1-2.163,1.122,4.032,4.032,0,0,1,3.285-3.285,3.954,3.954,0,0,1-1.122,2.163Z" transform="translate(-5.63 1.607)" fill="#1b3703"/></g></g></svg>