<svg xmlns="http://www.w3.org/2000/svg" xmlns:xlink="http://www.w3.org/1999/xlink" width="28" height="28" viewBox="0 0 28 28"><defs><clipPath id="a"><rect width="28" height="28" transform="translate(101 339)" fill="#fbaf00" stroke="#fbaf00" stroke-width="1"/></clipPath></defs><g transform="translate(-101 -339)" clip-path="url(#a)"><g transform="translate(104.992 340.029)"><path d="M12.819,25.851a.541.541,0,0,1-.357-.135c-.381-.337-9.338-8.327-9.338-16.022a9.694,9.694,0,0,1,19.388,0c0,7.695-8.956,15.685-9.338,16.022A.541.541,0,0,1,12.819,25.851Zm0-24.774A8.627,8.627,0,0,0,4.2,9.694c0,6.374,6.949,13.311,8.617,14.885,1.668-1.574,8.617-8.51,8.617-14.885A8.627,8.627,0,0,0,12.819,1.077Z" transform="translate(-3.125 0)" fill="#fbaf00" stroke="#fbaf00" stroke-width="0.5"/><path d="M12.677,14.938a5.386,5.386,0,1,1,5.386-5.386A5.392,5.392,0,0,1,12.677,14.938Zm0-9.694a4.308,4.308,0,1,0,4.308,4.308A4.313,4.313,0,0,0,12.677,5.244Z" transform="translate(-2.983 0.142)" fill="#fbaf00" stroke="#fbaf00" stroke-width="0.5"/></g></g></svg>