<svg xmlns="http://www.w3.org/2000/svg" xmlns:xlink="http://www.w3.org/1999/xlink" width="29" height="29" viewBox="0 0 29 29"><defs><clipPath id="a"><rect width="29" height="29" transform="translate(154 367)" fill="#fbaf00" stroke="#707070" stroke-width="1"/></clipPath></defs><g transform="translate(-154 -367)" clip-path="url(#a)"><path d="M13.75,24.467a1.613,1.613,0,0,1-1.063-.4c-1.111-.971-2.182-1.884-3.127-2.69l0,0a58.157,58.157,0,0,1-6.828-6.409A10.236,10.236,0,0,1,0,8.265a8.6,8.6,0,0,1,2.182-5.87A7.4,7.4,0,0,1,7.683,0,6.917,6.917,0,0,1,12,1.492,8.84,8.84,0,0,1,13.75,3.316,8.841,8.841,0,0,1,15.5,1.492,6.917,6.917,0,0,1,19.819,0a7.4,7.4,0,0,1,5.5,2.394A8.6,8.6,0,0,1,27.5,8.265a10.235,10.235,0,0,1-2.727,6.7,58.15,58.15,0,0,1-6.827,6.408c-.947.807-2.019,1.721-3.133,2.695a1.614,1.614,0,0,1-1.063.4ZM7.683,1.611A5.8,5.8,0,0,0,3.366,3.486,6.992,6.992,0,0,0,1.611,8.265a8.613,8.613,0,0,0,2.357,5.672A57.23,57.23,0,0,0,10.6,20.148l.005,0c.949.808,2.024,1.725,3.143,2.7,1.126-.98,2.2-1.9,3.153-2.708a57.245,57.245,0,0,0,6.632-6.21A8.613,8.613,0,0,0,25.89,8.265a6.992,6.992,0,0,0-1.755-4.779,5.8,5.8,0,0,0-4.317-1.875,5.343,5.343,0,0,0-3.336,1.155,7.817,7.817,0,0,0-1.859,2.151,1.017,1.017,0,0,1-1.747,0,7.81,7.81,0,0,0-1.859-2.151A5.343,5.343,0,0,0,7.683,1.611Zm0,0" transform="translate(154.499 369.988)" fill="#fbaf00" stroke="#fbaf00" stroke-width="0.3"/></g></svg>