<svg xmlns="http://www.w3.org/2000/svg" xmlns:xlink="http://www.w3.org/1999/xlink" width="28" height="28" viewBox="0 0 28 28"><defs><clipPath id="a"><rect width="28" height="28" transform="translate(101 385)" fill="#fbaf00" stroke="#707070" stroke-width="1"/></clipPath></defs><g transform="translate(-101 -385)" clip-path="url(#a)"><g transform="translate(102.211 386.211)"><path d="M13.6,18.778a1.069,1.069,0,1,1-1.069-1.069A1.069,1.069,0,0,1,13.6,18.778Zm0,0" transform="translate(0.307 0.474)" fill="#fbaf00" stroke="#fbaf00" stroke-width="0.2"/><path d="M12.834,25.669A12.834,12.834,0,1,1,25.669,12.834,12.849,12.849,0,0,1,12.834,25.669Zm0-24.065a11.23,11.23,0,1,0,11.23,11.23A11.242,11.242,0,0,0,12.834,1.6Zm0,0" transform="translate(0 0)" fill="#fbaf00" stroke="#fbaf00" stroke-width="0.2"/><path d="M12.618,15.664a.8.8,0,0,1-.8-.8v-1.08a2.412,2.412,0,0,1,1.606-2.27,3.318,3.318,0,0,0,2.137-2.8,2.941,2.941,0,1,0-5.883,0,.8.8,0,1,1-1.6,0,4.546,4.546,0,1,1,9.091,0,4.921,4.921,0,0,1-3.208,4.314.8.8,0,0,0-.536.757v1.079A.8.8,0,0,1,12.618,15.664Zm0,0" transform="translate(0.216 0.111)" fill="#fbaf00" stroke="#fbaf00" stroke-width="0.2"/></g></g></svg>