<svg xmlns="http://www.w3.org/2000/svg" xmlns:xlink="http://www.w3.org/1999/xlink" width="30" height="30" viewBox="0 0 30 30"><defs><clipPath id="a"><rect width="30" height="30" transform="translate(100 98)" fill="#fbaf00" stroke="#fbaf00" stroke-width="1"/></clipPath></defs><g transform="translate(-100 -98)" clip-path="url(#a)"><g transform="translate(101 100.52)"><g transform="translate(0 0)"><path d="M27.7,11.216,14.43,1.5a.727.727,0,0,0-.859,0L.3,11.216a.728.728,0,0,0,.86,1.174L14,2.986l12.843,9.4a.728.728,0,0,0,.86-1.174Z" transform="translate(0 -1.357)" fill="#fbaf00" stroke="#fbaf00" stroke-width="0.3"/></g><g transform="translate(3.087 11.197)"><path d="M23.855,11.355a.728.728,0,0,0-.728.728v11.58h-5.82V17.341a3.638,3.638,0,0,0-7.276,0v6.321H4.211V12.082a.728.728,0,0,0-1.455,0V24.39a.728.728,0,0,0,.728.728h7.275a.727.727,0,0,0,.725-.671.549.549,0,0,0,0-.057V17.341a2.183,2.183,0,1,1,4.366,0V24.39a.534.534,0,0,0,0,.056.727.727,0,0,0,.725.672h7.275a.728.728,0,0,0,.728-.728V12.082A.728.728,0,0,0,23.855,11.355Z" transform="translate(-2.756 -11.355)" fill="#fbaf00" stroke="#fbaf00" stroke-width="0.3"/></g></g></g></svg>