<svg xmlns="http://www.w3.org/2000/svg" xmlns:xlink="http://www.w3.org/1999/xlink" width="276.529" height="276.529" viewBox="0 0 276.529 276.529"><defs><clipPath id="a"><rect width="208.084" height="208.084" transform="translate(143 608)" fill="#1b3703" stroke="#1b3703" stroke-width="5"/></clipPath></defs><g transform="translate(215.29 -611.47) rotate(25)" clip-path="url(#a)"><g transform="translate(151.039 618.883)"><g transform="translate(0 0)"><path d="M190.121,2.457A2.889,2.889,0,0,0,187.5.469C181.434.217,164.864.26,142,6.107,120.714,11.55,106.114,16.735,89.61,28.218a2.889,2.889,0,0,0,3.3,4.744c15.942-11.094,29.9-15.982,50.519-21.256a188.95,188.95,0,0,1,23.225-4.4c-3.1,1.337-6.415,2.9-9.87,4.737-23.361,12.4-36.412,28.258-43.625,41a58.909,58.909,0,0,1-1.209-11.319,2.889,2.889,0,0,0-5.779,0c0,1.279.1,11.935,3.329,18.5-4.448,9.5-8.608,18.993-12.634,28.188Q94.3,94.276,91.805,99.93a46.206,46.206,0,0,1-5.093-25.384,2.889,2.889,0,1,0-5.76-.467,50.915,50.915,0,0,0,7.97,32.29,304.438,304.438,0,0,1-15.253,30.167c-2.7-6.1-6.92-17.736-6.92-30.688a2.889,2.889,0,1,0-5.779,0c0,17.18,6.645,31.789,9.036,36.49-5.721,8.549-11.831,15.234-18.732,19.3C30.251,138.808,28.2,95.969,64.929,56.3a53.732,53.732,0,0,1,8.511-8.083,2.889,2.889,0,1,0-3.66-4.472,58.83,58.83,0,0,0-9.091,8.629C21.946,94.219,24.129,139.824,46.344,164.808,27,177.827,3.062,178.64,2.812,178.647a2.889,2.889,0,0,0,.077,5.777h.077c1.109-.029,26.642-.866,47.557-15.474,6.337,5.171,16.278,8.317,28.331,8.317,13.645,0,30-4.033,46.888-13.724,15.648-8.978,26.866-22.712,33.344-40.821,5.547-15.507,7.418-34.165,5.41-53.956-3.58-35.283,9.749-51.2,24.685-63.152A2.891,2.891,0,0,0,190.121,2.457ZM164.6,26.092c-5.684,11.9-7.6,26.047-5.852,43.256,1.922,18.941.158,36.725-5.1,51.427-6,16.779-16.358,29.481-30.779,37.756-18.2,10.442-33.474,12.808-43.085,12.954-9.825.154-18.322-1.944-24.023-5.827a58.7,58.7,0,0,0,13.2-12.19c.225,0,.469,0,.74,0a126.948,126.948,0,0,0,14.361-.851c12.478-1.458,22.315-4.537,29.238-9.152a2.889,2.889,0,0,0-3.205-4.808c-10.664,7.11-27.842,8.654-36.709,8.958,5.621-8.016,10.8-17.641,15.9-28.3a51.022,51.022,0,0,0,31.042-11.208,2.889,2.889,0,1,0-3.6-4.518,46,46,0,0,1-24.656,9.8c3.331-7.209,6.661-14.815,10.1-22.658,1.772-4.048,3.572-8.155,5.408-12.291.2,0,.407.008.628.008,4.355,0,13.028-1.062,22.559-8.124a2.889,2.889,0,0,0-3.44-4.643,35.047,35.047,0,0,1-14.8,6.6c-.85.147-1.627.24-2.33.3q2.526-5.605,5.168-11.23c10.764-22.841,29.86-36.6,43.984-44.127A130.724,130.724,0,0,1,175.923,9.84,63,63,0,0,0,164.6,26.092Z" transform="translate(0 -0.393)" fill="#1b3703" stroke="#1b3703" stroke-width="5"/></g></g></g></svg>