<svg xmlns="http://www.w3.org/2000/svg" xmlns:xlink="http://www.w3.org/1999/xlink" width="24" height="24" viewBox="0 0 24 24"><defs><clipPath id="a"><rect width="24" height="24" transform="translate(143 608)" fill="#1b3703" stroke="#707070" stroke-width="1"/></clipPath></defs><g transform="translate(-143 -608)" clip-path="url(#a)"><g transform="translate(143 608)"><g transform="translate(0.932 0.869)"><path d="M22.051.632a.335.335,0,0,0-.3-.231,18.829,18.829,0,0,0-5.277.654,20.893,20.893,0,0,0-6.7,3,.335.335,0,0,0,.383.55,20.215,20.215,0,0,1,6.483-2.9,21.915,21.915,0,0,1,2.694-.511c-.359.155-.744.337-1.145.549A12.252,12.252,0,0,0,13.125,6.5a6.833,6.833,0,0,1-.14-1.313.335.335,0,0,0-.67,0A5.832,5.832,0,0,0,12.7,7.333c-.516,1.1-1,2.2-1.465,3.269q-.3.679-.587,1.335a5.359,5.359,0,0,1-.591-2.944.335.335,0,0,0-.668-.054,5.905,5.905,0,0,0,.924,3.745,35.31,35.31,0,0,1-1.769,3.5,9.148,9.148,0,0,1-.8-3.559.335.335,0,1,0-.67,0A9.852,9.852,0,0,0,8.12,16.856,7.106,7.106,0,0,1,5.947,19.1C3.509,16.447,3.271,11.478,7.531,6.878A15.78,15.78,0,0,1,9.11,5.394a.335.335,0,1,0-.424-.519A16.471,16.471,0,0,0,7.039,6.422C2.545,11.275,2.8,16.565,5.375,19.463A10.77,10.77,0,0,1,.326,21.068a.335.335,0,0,0,.009.67H.344A11.184,11.184,0,0,0,5.86,19.943a5.221,5.221,0,0,0,3.286.965,11.1,11.1,0,0,0,5.438-1.592,8.618,8.618,0,0,0,3.867-4.735,14.448,14.448,0,0,0,.627-6.258C18.664,4.231,20.21,2.384,21.942,1A.335.335,0,0,0,22.051.632Zm-2.96,2.741a9.251,9.251,0,0,0-.679,5.017,13.78,13.78,0,0,1-.592,5.965,7.966,7.966,0,0,1-3.57,4.379,10.4,10.4,0,0,1-5,1.5,4.892,4.892,0,0,1-2.786-.676A6.808,6.808,0,0,0,8,18.147h.086a14.724,14.724,0,0,0,1.666-.1,7.782,7.782,0,0,0,3.391-1.062.335.335,0,0,0-.372-.558,9.021,9.021,0,0,1-4.258,1.039,23.339,23.339,0,0,0,1.844-3.283,5.918,5.918,0,0,0,3.6-1.3.335.335,0,1,0-.418-.524,5.335,5.335,0,0,1-2.86,1.137c.386-.836.773-1.718,1.171-2.628.206-.469.414-.946.627-1.426h.073A4.428,4.428,0,0,0,15.165,8.5a.335.335,0,0,0-.4-.539,4.065,4.065,0,0,1-1.716.765c-.1.017-.189.028-.27.035q.293-.65.6-1.3a11.549,11.549,0,0,1,5.1-5.118A15.162,15.162,0,0,1,20.4,1.489,7.307,7.307,0,0,0,19.091,3.374Z" transform="translate(0)" fill="#1b3703"/></g></g></g></svg>