<?xml version="1.0" encoding="utf-8"?>
<!-- Generator: Adobe Illustrator 24.1.1, SVG Export Plug-In . SVG Version: 6.00 Build 0)  -->
<svg version="1.1" id="Capa_1" xmlns="http://www.w3.org/2000/svg" xmlns:xlink="http://www.w3.org/1999/xlink" x="0px" y="0px"
	 viewBox="0 0 237.2 57.2" style="enable-background:new 0 0 237.2 57.2;" xml:space="preserve">
<style type="text/css">
	.st0{fill:#1B3703;}
</style>
<g>
	<path class="st0" d="M232.4,13.7c-1.4-0.9-5.3-3.2-11.4-4.9c-5.9-1.7-11.1-2.3-16.4-1.9c-0.5,0-0.9,0.3-1.2,0.6S203,8.3,203,8.8
		c0.1,1,0.9,1.7,1.9,1.6c4.8-0.4,9.5,0.2,14.9,1.7c-4.1,0.2-7.4,1.2-9.9,2.3c0,0,0-0.1,0-0.1c0.2-0.4,0.3-0.9,0.2-1.3
		c-0.1-0.5-0.4-0.8-0.8-1.1c-0.4-0.2-0.9-0.3-1.3-0.2c-0.5,0.1-0.8,0.4-1.1,0.8c-0.3,0.4-1.5,2.6-1.8,4.6c-2.2,1.5-4.4,3.1-6.3,4.5
		c-0.3,0.2-0.5,0.4-0.8,0.6c0.3-1.1,0.8-2.4,1.7-3.7c0.3-0.4,0.4-0.9,0.3-1.3c-0.1-0.5-0.3-0.9-0.7-1.1c-0.4-0.3-0.8-0.4-1.3-0.3
		c-0.5,0.1-0.9,0.3-1.1,0.7c-2.4,3.4-2.7,6.8-2.7,8.5c-2,1.4-3.7,2.5-5.2,3.4c0.3-1.6,1-3.6,2.1-5.5c0.5-0.8,0.2-1.9-0.6-2.4
		c-0.4-0.2-0.9-0.3-1.3-0.2c-0.5,0.1-0.8,0.4-1.1,0.8c-2.1,3.6-2.7,7.4-2.9,9.4c-1.9,0.9-3.6,1.4-5.1,1.5
		c-1.1-7.1,3.6-16.2,16.7-20.2l0.6-0.2c1.1-0.3,1.5-0.5,2.9-0.7c1-0.1,1.6-1.1,1.5-2c-0.2-1-1.1-1.6-2-1.5c-1.6,0.2-2.1,0.4-3.4,0.8
		l-0.5,0.2c-14.8,4.5-20.3,15.2-19.2,23.7c-5.4-0.1-10.7-2.9-10.9-3.1c-0.1,0-0.2-0.1-0.2-0.1l0,0c-0.6-0.3-1.4-0.5-2.4-0.7
		s-1.9-0.3-2.9-0.3c-1.6,0-3.1,0.3-4.3,0.8c-1.2,0.5-2.1,1.3-2.7,2.3s-1,2.1-1,3.3c0,1.2,0.3,2.2,1,3.1c0.7,0.9,1.7,1.7,3.2,2.5
		c1.1,0.6,1.9,1.1,2.2,1.5c0.4,0.4,0.6,0.9,0.6,1.5c0,0.8-0.3,1.4-0.8,1.8s-1.4,0.6-2.6,0.6c-0.9,0-1.9-0.2-2.9-0.5
		c-1-0.3-1.8-0.7-2.6-1.1l-0.8,3.9c0.6,0.3,1.4,0.6,2.6,0.8c1.1,0.2,2.2,0.3,3.2,0.3c1.8,0,3.4-0.3,4.6-0.8c1.3-0.5,2.2-1.3,2.9-2.2
		c0.7-0.9,1-2,1-3.3c0-1.2-0.3-2.2-0.9-3c-0.6-0.9-1.8-1.8-3.5-2.7c-0.8-0.5-1.5-0.9-1.9-1.3s-0.7-1-0.7-1.6c0-0.7,0.3-1.3,0.8-1.8
		c0.5-0.5,1.4-0.7,2.5-0.7c0.8,0,1.6,0.1,2.4,0.4c0.8,0.2,1.6,0.5,2.1,0.9l0,0c0.3,0.2,6.1,3.2,12.8,2.9c1,2.1,2.9,4,5.5,5.5
		c2.5,1.5,6.8,3.2,13,3.3c0.1,0,0.2,0,0.2,0c4.9,0,9.5-1.7,13.5-5.1c3.5-2.9,6.5-7,8.7-11.9c3.5-7.6,7.9-9.7,13.3-10.5
		c0.7-0.1,1.3-0.7,1.5-1.4C233.4,14.9,233.1,14.1,232.4,13.7z M196.2,40.9c-0.1,0-0.1,0-0.2,0c-5.3-0.1-9-1.5-11.1-2.7
		c-1.5-0.8-2.7-1.8-3.5-2.9c0.9-0.2,1.8-0.4,2.8-0.7c0.7,0.4,1.8,1,3.3,1.6c3.2,1.4,6,2,8.3,1.9c1-0.1,1.7-0.9,1.7-1.9
		c-0.1-1-0.9-1.7-1.9-1.7c-2.4,0.1-5.3-0.9-7.3-1.9c1.6-0.8,3.3-1.9,5.2-3.2c1.6,0.8,4.7,2,8.7,1.4c1-0.1,1.6-1,1.5-2
		c-0.1-1-1-1.6-2-1.5c-1.8,0.3-3.5,0-4.7-0.3c1.2-0.9,2.4-1.7,3.7-2.6l0.3-0.2c0.7-0.5,1.5-1.1,2.2-1.6c1.2,0.6,3.4,1.4,6.4,1.1
		c0.5,0,0.9-0.3,1.2-0.6c0.3-0.4,0.4-0.8,0.4-1.3c0-0.5-0.3-0.9-0.6-1.2c-0.4-0.3-0.8-0.4-1.3-0.4c-1,0.1-1.8,0.1-2.5-0.1
		c0.3-0.2,0.7-0.5,1-0.7c5.3-3.6,11.2-4.2,15.3-4c0.3,0,0.6,0,0.9,0.1c-0.5,0.3-0.9,0.5-1.4,0.8c-3,2.1-5.5,5.2-7.5,9.5
		c-2,4.4-4.7,8.1-7.8,10.7C204.1,39.5,200.3,40.9,196.2,40.9z"/>
	<path class="st0" d="M20.3,28c-1.3,0-2.7,0.4-4,1.3c-1.3,0.8-2.5,2-3.6,3.6h-0.1c0.3-1.8,0.5-3.2,0.6-4.3H8.6c-0.2,1.8-0.6,3.8-1,6
		l-3,14h4.8l2.1-9.9c0.2-1.1,0.7-2.2,1.5-3.3s1.6-2,2.5-2.7c0.9-0.7,1.8-1,2.7-1c0.8,0,1.3,0.2,1.8,0.7c0.4,0.5,0.6,1.1,0.6,1.9
		c0,0.3-0.1,1.2-0.4,2.6l-2.4,11.6h4.7l2.4-11.3c0.4-1.9,0.6-3.2,0.6-3.9c0-1.7-0.4-3.1-1.3-4C23.2,28.5,21.9,28,20.3,28z"/>
	<path class="st0" d="M42.8,38.2c-0.2,1.1-0.7,2.3-1.5,3.4c-0.7,1.1-1.6,2-2.5,2.7s-1.9,1-2.8,1c-0.8,0-1.4-0.2-1.8-0.7
		c-0.4-0.5-0.6-1.1-0.6-1.9c0-0.3,0.1-1.2,0.4-2.6l2.5-11.6h-4.7l-2.4,11.3c-0.4,1.9-0.6,3.2-0.6,3.8c0,1.7,0.4,3,1.3,4
		c0.9,0.9,2.1,1.4,3.8,1.4c1.4,0,2.7-0.4,4-1.3c1.3-0.8,2.5-2,3.6-3.5h0.1l-0.6,4.3h4.7c0.2-2,0.5-4.2,1.1-6.6l2.9-13.5h-4.7
		L42.8,38.2z"/>
	<path class="st0" d="M65,28c-1.2,0-2.3,0.4-3.2,1.2s-1.8,2-2.6,3.5h-0.1c0.2-1.6,0.4-3,0.5-4.2H55c-0.1,1.4-0.5,3.8-1.2,7L51,48.6
		h4.7l1.8-8.6c0.5-2.3,1.3-4.1,2.4-5.5c1.1-1.4,2.4-2.1,3.7-2.1c0.7,0,1.5,0.2,2.3,0.6l0.9-4.8C66.1,28.1,65.5,28,65,28z"/>
	<path class="st0" d="M76.6,28c-1.6,0-3.1,0.3-4.3,0.8c-1.2,0.5-2.1,1.3-2.7,2.3s-1,2.1-1,3.3c0,1.2,0.3,2.2,1,3.1
		c0.7,0.9,1.7,1.7,3.2,2.5c1.1,0.6,1.9,1.1,2.2,1.5c0.4,0.4,0.6,0.9,0.6,1.5c0,0.8-0.3,1.4-0.8,1.8s-1.4,0.6-2.6,0.6
		c-0.9,0-1.9-0.2-2.9-0.5c-1-0.3-1.8-0.7-2.6-1.1L66.1,48c0.6,0.3,1.4,0.6,2.6,0.8c1.1,0.2,2.2,0.3,3.2,0.3c1.8,0,3.4-0.3,4.6-0.8
		c1.3-0.5,2.2-1.3,2.9-2.2c0.7-0.9,1-2,1-3.3c0-1.2-0.3-2.2-0.9-3c-0.6-0.9-1.8-1.8-3.5-2.7c-0.8-0.5-1.5-0.9-1.9-1.3
		s-0.7-1-0.7-1.6c0-0.7,0.3-1.3,0.8-1.8c0.5-0.5,1.4-0.7,2.5-0.7c0.8,0,1.6,0.1,2.4,0.4c0.8,0.2,1.5,0.5,2.1,0.9l0.8-3.8
		c-0.6-0.3-1.4-0.5-2.4-0.7S77.6,28,76.6,28z"/>
	<path class="st0" d="M100.1,29.5c-1.2-1-2.9-1.5-5-1.5c-2.1,0-4.1,0.6-5.8,1.7s-3.2,2.7-4.2,4.7c-1,2-1.5,4.1-1.5,6.4
		c0,2.6,0.7,4.7,2.2,6.1c1.5,1.5,3.5,2.2,6.1,2.2c2.4,0,4.6-0.5,6.5-1.6l0.8-3.9c-0.9,0.6-2,1-3.1,1.4c-1.1,0.4-2.2,0.5-3.2,0.5
		c-1.5,0-2.6-0.4-3.4-1.1c-0.8-0.8-1.2-1.8-1.2-3.2v-0.4l0-0.2c4.6-0.1,8-0.7,10.2-1.8c2.2-1.1,3.4-2.9,3.4-5.3
		C101.9,31.8,101.3,30.5,100.1,29.5z M88.7,37.4c0.4-1.7,1.1-3.1,2.2-4.2s2.4-1.7,3.8-1.7c0.8,0,1.5,0.2,2,0.6s0.7,0.9,0.7,1.6
		C97.4,36.1,94.5,37.4,88.7,37.4z"/>
	<path class="st0" d="M113.9,29.3c-0.9,0.8-1.8,2-2.6,3.5h-0.1c0.2-1.6,0.4-3,0.5-4.2h-4.7c-0.1,1.4-0.5,3.8-1.2,7l-2.8,13.1h4.7
		l1.8-8.6c0.5-2.3,1.3-4.1,2.4-5.5c1.1-1.4,2.4-2.1,3.7-2.1c0.7,0,1.5,0.2,2.3,0.6l0.9-4.8c-0.8-0.2-1.5-0.3-2-0.3
		C115.9,28,114.8,28.5,113.9,29.3z"/>
	<path class="st0" d="M124.3,43.7c0-0.4,0.1-1.2,0.4-2.5l2.7-12.7h-4.8l-2.9,14.2c-0.1,0.7-0.2,1.3-0.2,2c0,1.3,0.4,2.4,1.1,3.1
		c0.8,0.7,1.8,1.1,3.3,1.1c1,0,2-0.2,3.2-0.5l0.7-3.6c-0.5,0.2-1.1,0.3-1.8,0.3C124.8,45.2,124.3,44.7,124.3,43.7z"/>
	<path class="st0" d="M126.4,19.2c-0.8,0-1.5,0.2-2.1,0.7c-0.6,0.5-0.9,1.1-0.9,1.9c0,0.8,0.3,1.4,0.8,1.9c0.5,0.5,1.2,0.7,2,0.7
		c0.8,0,1.5-0.3,2.1-0.8c0.6-0.5,0.8-1.2,0.8-2c0-0.7-0.3-1.3-0.8-1.8C127.8,19.4,127.2,19.2,126.4,19.2z"/>
	<path class="st0" d="M147.1,29.5c-1.2-1-2.9-1.5-5-1.5c-2.1,0-4.1,0.6-5.8,1.7s-3.2,2.7-4.2,4.7c-1,2-1.5,4.1-1.5,6.4
		c0,2.6,0.7,4.7,2.2,6.1c1.5,1.5,3.5,2.2,6.1,2.2c2.4,0,4.6-0.5,6.5-1.6l0.8-3.9c-0.9,0.6-2,1-3.1,1.4c-1.1,0.4-2.2,0.5-3.2,0.5
		c-1.5,0-2.6-0.4-3.4-1.1c-0.8-0.8-1.2-1.8-1.2-3.2v-0.4l0-0.2c4.6-0.1,8-0.7,10.2-1.8c2.2-1.1,3.4-2.9,3.4-5.3
		C149,31.8,148.3,30.5,147.1,29.5z M135.7,37.4c0.4-1.7,1.1-3.1,2.2-4.2s2.4-1.7,3.8-1.7c0.8,0,1.5,0.2,2,0.6s0.7,0.9,0.7,1.6
		C144.4,36.1,141.5,37.4,135.7,37.4z"/>
</g>
</svg>
