<svg xmlns="http://www.w3.org/2000/svg" xmlns:xlink="http://www.w3.org/1999/xlink" width="30" height="30" viewBox="0 0 30 30"><defs><clipPath id="a"><rect width="30" height="30" transform="translate(101 194)" fill="#fbaf00" stroke="#fbaf00" stroke-width="1"/></clipPath></defs><g transform="translate(-101 -194)" clip-path="url(#a)"><g transform="translate(104.031 195)"><path d="M24.234,19.988a.41.41,0,0,0,.41-.41V10.965a2.241,2.241,0,0,0-.537-1.41L21.065,5.869a2.4,2.4,0,0,0-.542-.485c.012-.125.019-.252.019-.38V.41a.41.41,0,0,0-.82,0s0,4.633,0,4.652a2.031,2.031,0,0,0-.354-.031h-5.3a2.106,2.106,0,0,0-1.067.3l-.042.017-4,1.948a2.143,2.143,0,0,0-1,1.049l-.006.015L6.3,12.551a.41.41,0,1,0,.763.3L8.71,8.667a1.318,1.318,0,0,1,.607-.638L11.43,7,9.322,9.555a2.182,2.182,0,0,0-.483,1.41V25.129a2.932,2.932,0,0,0,.041.484L4.654,23.74a1.9,1.9,0,0,1-.964-2.5l.005-.013,2.6-5.863a.41.41,0,0,0-.761-.306l-2.6,5.857a2.723,2.723,0,0,0,1.385,3.58l4.956,2.2.018.007A2.8,2.8,0,0,0,11.656,28H21.773a2.91,2.91,0,0,0,2.871-2.871V22.723a.41.41,0,0,0-.82,0v2.406a2.078,2.078,0,0,1-2.051,2.051H11.656a2.026,2.026,0,0,1-2-2.051V10.965a1.354,1.354,0,0,1,.295-.888L13,6.391a1.4,1.4,0,0,1,1.066-.54h5.3a1.208,1.208,0,0,1,.23.023,3.089,3.089,0,0,1-1.752,1.972,1.285,1.285,0,1,0,.171.815,3.908,3.908,0,0,0,2.312-2.384c.036.036.07.074.1.114l3.042,3.686a1.422,1.422,0,0,1,.35.888v8.613a.41.41,0,0,0,.41.41ZM16.741,8.969a.465.465,0,1,1,.465-.465A.465.465,0,0,1,16.741,8.969Z" transform="translate(-2.707 0)" fill="#fbaf00" stroke="#fbaf00" stroke-width="0.8"/><path d="M12.108,20.32a.409.409,0,0,0,.29-.12l7-7a.41.41,0,1,0-.58-.58l-7,7a.413.413,0,0,0,.29.7Z" transform="translate(-1.628 1.5)" fill="#fbaf00" stroke="#fbaf00" stroke-width="0.5"/><path d="M13.041,16.006a1.777,1.777,0,1,0,0-3.555h-.055a1.777,1.777,0,1,0,0,3.555ZM12.03,14.229a.958.958,0,0,1,.957-.957h.055a.957.957,0,0,1,0,1.914h-.055A.958.958,0,0,1,12.03,14.229Z" transform="translate(-1.686 1.494)" fill="#fbaf00" stroke="#fbaf00" stroke-width="0.5"/><path d="M17.772,19.863h.055a1.777,1.777,0,0,0,0-3.555h-.055a1.777,1.777,0,1,0,0,3.555Zm0-2.734h.055a.957.957,0,0,1,0,1.914h-.055a.957.957,0,0,1,0-1.914Z" transform="translate(-1.112 1.957)" fill="#fbaf00" stroke="#fbaf00" stroke-width="0.5"/></g></g></svg>