<svg xmlns="http://www.w3.org/2000/svg" xmlns:xlink="http://www.w3.org/1999/xlink" width="24" height="24" viewBox="0 0 24 24"><defs><clipPath id="a"><rect width="24" height="24" transform="translate(32.318 604.891)" fill="#1b3703" stroke="#707070" stroke-width="1"/></clipPath></defs><g transform="translate(-32.318 -604.891)" clip-path="url(#a)"><g transform="translate(34.869 605.047)"><g transform="translate(0 0)"><path d="M21.6,1.156a.457.457,0,0,0,0-.914A.457.457,0,0,0,21.6,1.156Z" transform="translate(-6.245 -0.039)" fill="#1b3703"/><path d="M22.686,2.517a.457.457,0,0,0,0-.914A.457.457,0,0,0,22.686,2.517Z" transform="translate(-6.422 -0.26)" fill="#1b3703"/><path d="M20.025,1.7a.457.457,0,0,0,0-.914A.457.457,0,0,0,20.025,1.7Z" transform="translate(-5.991 -0.127)" fill="#1b3703"/><path d="M19.479,3.062a.457.457,0,0,0,0-.914A.457.457,0,0,0,19.479,3.062Z" transform="translate(-5.902 -0.348)" fill="#1b3703"/><path d="M21.683,3.676a.457.457,0,0,0,.914,0A.457.457,0,0,0,21.683,3.676Z" transform="translate(-6.332 -0.522)" fill="#1b3703"/><path d="M20.876,4.561a14.961,14.961,0,0,0-3.885.8c-.006-.078-.016-.156-.028-.235a9.213,9.213,0,0,0,1.822-3.294.343.343,0,1,0-.664-.168,8,8,0,0,1-1.372,2.629,5.6,5.6,0,0,0-1.016-1.683L13.608.12a.343.343,0,0,0-.521,0L10.963,2.606A4.91,4.91,0,0,0,9.706,5.357a9.49,9.49,0,0,0-2.773-.644c-.352-.046-.684-.089-1.008-.145a.344.344,0,0,0-.419.356c.06.533-.024,3.892.88,3.547a.343.343,0,0,0,.189-.446,8.165,8.165,0,0,1-.363-2.717c2.316.3,3.947.395,5.089,2.632a3.39,3.39,0,0,0,.655.847,3.247,3.247,0,0,0-.21.592A9.977,9.977,0,0,1,7.572,6.265a.343.343,0,1,0-.535.429,10.6,10.6,0,0,0,4.624,3.383,2.184,2.184,0,0,0,.072.536A6.446,6.446,0,0,1,7.372,9.18a.343.343,0,0,0-.474.5,4.829,4.829,0,0,0,.781.6A5.024,5.024,0,0,0,5.707,13.7a2.6,2.6,0,0,0,.158,1.645.345.345,0,0,0,.529.083,3.454,3.454,0,0,1,1.79-.834c.3-.024.6-.041.894-.075A45.357,45.357,0,0,1,3.452,22.9a.343.343,0,1,0,.515.452,46.839,46.839,0,0,0,5.975-9.009,2.96,2.96,0,0,0,.378-.149,4.277,4.277,0,0,0,.294.575A40.108,40.108,0,0,1,5.275,22.9a.343.343,0,1,0,.515.452,40.407,40.407,0,0,0,5.267-7.945,9.506,9.506,0,0,1,1.968,3.028.345.345,0,0,0,.647,0A6.725,6.725,0,0,1,14.8,16.409a.343.343,0,0,0-.529-.435,7.189,7.189,0,0,0-.926,1.453c-.542-1.27-1.669-2.083-2.3-3.28a2.506,2.506,0,0,1,.364-2.859c.1.005.2.009.308.012a1.255,1.255,0,0,0-.041,1.995,2.422,2.422,0,0,0,1.668.556,2.413,2.413,0,0,0,1.664-.556,1.255,1.255,0,0,0-.041-1.995c.1,0,.206-.007.307-.013a2.588,2.588,0,0,1-.017,3.478.343.343,0,0,0,.557.4,4.844,4.844,0,0,0,.558-.972c1.442.647,2.527-.016,3.924,1.23a.345.345,0,0,0,.529-.083,2.6,2.6,0,0,0,.158-1.645,5.03,5.03,0,0,0-1.974-3.418c2.119-1.287,2.114-3.25,2.175-5.353a.343.343,0,0,0-.313-.363ZM10.2,12.062a3.2,3.2,0,0,0-.081,1.461c-1.339.635-2.292.02-3.772,1.067a4.445,4.445,0,0,1,2.008-3.952,7.774,7.774,0,0,0,2.235.581A2.924,2.924,0,0,0,10.2,12.062ZM11.894,7.6A5.785,5.785,0,0,0,10.38,5.747C10.193,4.054,12.258,2.229,13.348.87c1.093,1.363,3.154,3.184,2.968,4.877A5.785,5.785,0,0,0,14.8,7.6a3.006,3.006,0,0,1-.426.589,6.518,6.518,0,0,0-.592-.616.62.62,0,0,0-.871,0,6.638,6.638,0,0,0-.592.616,3,3,0,0,1-.426-.588ZM14.23,10.63a.932.932,0,0,1-.889.551c-1.454-.063-1.08-2.082-.293-2.787.02-.019.3-.293.3-.292l.3.292A2.212,2.212,0,0,1,14.23,10.63Zm.309,2.17a2.107,2.107,0,0,1-2.382,0,.622.622,0,0,1-.175-.8,1.864,1.864,0,0,1,.483-.369,1.664,1.664,0,0,0,.988.24,1.572,1.572,0,0,0,.777-.24,1.863,1.863,0,0,1,.483.369A.622.622,0,0,1,14.539,12.8Zm5.384-.358a4.95,4.95,0,0,1,.424,2.148,3.988,3.988,0,0,0-1.781-.684,5,5,0,0,1-1.991-.383,3.233,3.233,0,0,0-.475-2.307,7.887,7.887,0,0,0,2.233-.581A4.34,4.34,0,0,1,19.923,12.443Zm.547-6.779c.149,3.323-1.9,4.849-5.509,4.949a2.189,2.189,0,0,0,.072-.536,10.6,10.6,0,0,0,4.625-3.383.343.343,0,1,0-.535-.429A9.976,9.976,0,0,1,14.95,9.379a3.246,3.246,0,0,0-.21-.592,3.387,3.387,0,0,0,.655-.846C16.537,5.7,18.17,5.6,20.484,5.308c-.005.12-.009.239-.013.356Z" transform="translate(-3.367 0)" fill="#1b3703"/></g></g></g></svg>