<svg xmlns="http://www.w3.org/2000/svg" xmlns:xlink="http://www.w3.org/1999/xlink" width="28" height="28" viewBox="0 0 28 28"><defs><clipPath id="a"><rect width="28" height="28" transform="translate(321.06 14.63)" fill="#fbaf00"/></clipPath></defs><g transform="translate(-321.06 -14.63)" clip-path="url(#a)"><g transform="translate(321.618 15.553)"><g transform="translate(0 0)"><path d="M25.939,5.948a1.022,1.022,0,0,0-.793-.377H6.631l-.076-.7,0-.022A5.593,5.593,0,0,0,1.022,0a1.022,1.022,0,1,0,0,2.044,3.543,3.543,0,0,1,3.5,3.063L5.739,16.269a3.071,3.071,0,0,0-1.8,2.794c0,.009,0,.017,0,.026s0,.017,0,.026A3.07,3.07,0,0,0,7,22.181h.416a3.015,3.015,0,1,0,5.71,0h4.409a3.016,3.016,0,1,0,2.855-2.044H7A1.023,1.023,0,0,1,5.98,19.115c0-.009,0-.017,0-.026s0-.017,0-.026A1.023,1.023,0,0,1,7,18.041h13.05a4.681,4.681,0,0,0,4.242-2.86,1.022,1.022,0,1,0-1.872-.822A2.673,2.673,0,0,1,20.051,16H7.765L6.853,7.615H23.888l-.526,3a1.022,1.022,0,1,0,2,.417L26.146,6.8A1.022,1.022,0,0,0,25.939,5.948ZM20.392,22.181a.971.971,0,1,1-.971.971A.972.972,0,0,1,20.392,22.181Zm-10.119,0a.971.971,0,1,1-.971.971A.972.972,0,0,1,10.273,22.181Z" fill="#fbaf00"/></g></g></g></svg>