<svg xmlns="http://www.w3.org/2000/svg" xmlns:xlink="http://www.w3.org/1999/xlink" width="28" height="28" viewBox="0 0 28 28"><defs><clipPath id="a"><rect width="28" height="28" transform="translate(321.06 14.63)" fill="#fbaf00"/></clipPath></defs><g transform="translate(-321.06 -14.63)" clip-path="url(#a)"><g transform="translate(321.618 15.553)"><g transform="translate(0 0)"><path d="M-2732.181,342.229a3.018,3.018,0,0,1,.16-.971h-4.409a3.018,3.018,0,0,1,.16.971,3.019,3.019,0,0,1-3.015,3.016,3.019,3.019,0,0,1-3.016-3.016,3.018,3.018,0,0,1,.16-.971h-.416a3.07,3.07,0,0,1-3.066-3.066v-.051a3.07,3.07,0,0,1,1.8-2.794l-1.215-11.163a3.543,3.543,0,0,0-3.5-3.063,1.021,1.021,0,0,1-1.021-1.022,1.021,1.021,0,0,1,1.021-1.022,5.593,5.593,0,0,1,5.531,4.851l0,.022.077.7h18.515a1.021,1.021,0,0,1,.793.378,1.022,1.022,0,0,1,.208.853l-1.721,8.023a1.022,1.022,0,0,1-.1.276c-.009.027-.02.054-.031.08a4.682,4.682,0,0,1-4.243,2.859h-13.05a1.023,1.023,0,0,0-1.021,1.022c0,.009,0,.017,0,.026s0,.016,0,.025a1.023,1.023,0,0,0,1.021,1.022h13.391a3.019,3.019,0,0,1,3.015,3.015,3.019,3.019,0,0,1-3.015,3.016A3.019,3.019,0,0,1-2732.181,342.229Z" transform="translate(2749.558 -319.077)" fill="#fbaf00"/></g></g></g></svg>